<?xml version="1.0" encoding="UTF-8" standalone="no"?>
<!DOCTYPE svg PUBLIC "-//W3C//DTD SVG 1.1//EN" "http://www.w3.org/Graphics/SVG/1.1/DTD/svg11.dtd">
<svg width="100%" height="100%" viewBox="0 0 1388 473" version="1.1" xmlns="http://www.w3.org/2000/svg" xmlns:xlink="http://www.w3.org/1999/xlink" xml:space="preserve" xmlns:serif="http://www.serif.com/" style="fill-rule:evenodd;clip-rule:evenodd;stroke-linejoin:round;stroke-miterlimit:2;">
    <g id="Calque-1" serif:id="Calque 1" transform="matrix(4.16667,0,0,4.16667,0,0)">
        <g transform="matrix(1,0,0,1,204.383,21.2854)">
            <path d="M0,64.335L0,26.676C0,19.613 4.445,13.991 12.029,13.991C19.875,13.991 23.406,19.222 23.406,26.152L23.406,64.335L40.666,64.335L40.666,26.676C40.666,19.744 45.113,13.991 52.567,13.991C60.543,13.991 63.944,19.222 63.944,26.152L63.944,64.335L80.812,64.335L80.812,22.621C80.812,5.36 69.436,-1.832 57.536,-1.832C49.036,-1.832 42.236,1.045 37.138,8.891C33.867,1.96 26.807,-1.832 18.045,-1.832C10.983,-1.832 2.746,1.567 -0.785,7.845L-0.785,0L-17.393,0L-17.393,64.335L0,64.335ZM-62.246,-1.962C-81.468,-1.962 -95.982,12.291 -95.982,32.167C-95.982,51.913 -81.468,66.297 -62.246,66.297C-43.021,66.297 -28.507,51.913 -28.507,32.167C-28.507,12.291 -43.021,-1.962 -62.246,-1.962M-62.246,50.474C-70.743,50.474 -78.591,44.198 -78.591,32.167C-78.591,20.007 -70.743,13.859 -62.246,13.859C-53.746,13.859 -45.898,20.007 -45.898,32.167C-45.898,44.328 -53.746,50.474 -62.246,50.474M-186.992,64.335L-186.992,26.676C-186.992,19.613 -182.545,13.991 -174.961,13.991C-167.116,13.991 -163.584,19.222 -163.584,26.152L-163.584,64.335L-146.324,64.335L-146.324,26.676C-146.324,19.744 -141.878,13.991 -134.425,13.991C-126.448,13.991 -123.048,19.222 -123.048,26.152L-123.048,64.335L-106.179,64.335L-106.179,22.621C-106.179,5.36 -117.555,-1.832 -129.457,-1.832C-137.955,-1.832 -144.755,1.045 -149.854,8.891C-153.125,1.96 -160.186,-1.832 -168.946,-1.832C-176.007,-1.832 -184.246,1.567 -187.776,7.845L-187.776,0L-204.383,0L-204.383,64.335L-186.992,64.335Z" style="fill:rgb(229,28,21);fill-rule:nonzero;"/>
        </g>
        <g transform="matrix(1,0,0,1,285.195,98.7733)">
            <path d="M0,14.31L0,11.692L-6.169,11.692L-6.169,8.383L-0.584,8.383L-0.584,5.907L-6.169,5.907L-6.169,2.638L0,2.638L0,0.019L-8.948,0.019L-8.948,14.31L0,14.31ZM-19.354,6.409L-19.354,2.436L-17.094,2.436C-15.683,2.436 -14.856,3.222 -14.856,4.433C-14.856,5.602 -15.683,6.409 -17.094,6.409L-19.354,6.409ZM-15.097,14.31L-11.995,14.31L-15.057,8.464C-13.184,7.92 -12.015,6.409 -12.015,4.413C-12.015,1.931 -13.788,0.019 -16.57,0.019L-22.153,0.019L-22.153,14.31L-19.354,14.31L-19.354,8.806L-17.901,8.806L-15.097,14.31ZM-39.874,7.174C-39.874,11.773 -36.408,14.613 -32.537,14.613C-28.645,14.613 -25.179,11.773 -25.179,7.174C-25.179,2.557 -28.645,-0.284 -32.537,-0.284C-36.408,-0.284 -39.874,2.557 -39.874,7.174M-36.994,7.155C-36.994,3.928 -34.735,2.395 -32.537,2.395C-30.317,2.395 -28.059,3.928 -28.059,7.155C-28.059,10.38 -30.317,11.914 -32.537,11.914C-34.735,11.914 -36.994,10.38 -36.994,7.155M-42.899,14.31L-42.899,0.019L-46.688,0.019L-50.881,10.339L-55.176,0.019L-58.845,0.019L-58.845,14.31L-56.184,14.31L-56.184,4.372L-52.071,14.31L-49.753,14.31L-45.639,4.292L-45.639,14.31L-42.899,14.31ZM-71.869,14.31C-67.794,14.31 -64.793,11.692 -64.793,7.174C-64.793,2.658 -67.775,0.019 -71.848,0.019L-76.968,0.019L-76.968,14.31L-71.869,14.31ZM-74.188,11.733L-74.188,2.596L-71.949,2.596C-69.61,2.596 -67.673,4.07 -67.673,7.174C-67.673,10.28 -69.631,11.733 -71.969,11.733L-74.188,11.733ZM-80.841,14.31L-80.841,0.019L-83.619,0.019L-83.619,9.472L-89.568,0.019L-93.034,0.019L-93.034,14.31L-90.254,14.31L-90.254,4.17L-83.762,14.31L-80.841,14.31ZM-102.592,3.104L-100.615,8.506L-104.567,8.506L-102.592,3.104ZM-98.498,14.31L-95.475,14.31L-100.919,0.019L-104.143,0.019L-109.627,14.31L-106.684,14.31L-105.494,11.043L-99.688,11.043L-98.498,14.31ZM-113.68,2.658L-113.68,0.019L-125.511,0.019L-125.511,2.658L-120.995,2.658L-120.995,14.31L-118.197,14.31L-118.197,2.658L-113.68,2.658ZM-127.832,14.31L-127.832,11.692L-134,11.692L-134,8.383L-128.417,8.383L-128.417,5.907L-134,5.907L-134,2.638L-127.832,2.638L-127.832,0.019L-136.781,0.019L-136.781,14.31L-127.832,14.31ZM-149.844,9.958C-149.844,12.759 -147.99,14.613 -145.167,14.613C-142.384,14.613 -140.512,12.477 -140.512,9.898L-140.512,0.019L-143.291,0.019L-143.291,9.898C-143.291,11.147 -144.018,11.974 -145.187,11.974C-146.317,11.974 -147.145,11.309 -147.165,9.837L-147.165,8.527L-149.844,9.011L-149.844,9.958ZM-159.139,11.995L-159.139,8.222L-156.839,8.222C-155.449,8.222 -154.722,9.009 -154.722,10.137C-154.722,11.289 -155.527,11.995 -156.88,11.995L-159.139,11.995ZM-159.139,5.925L-159.139,2.356L-157.182,2.356C-155.831,2.356 -155.125,3.04 -155.125,4.13C-155.125,5.22 -155.891,5.925 -157.163,5.925L-159.139,5.925ZM-161.878,0.019L-161.878,14.31L-156.355,14.31C-153.674,14.31 -151.943,12.639 -151.943,10.321C-151.943,8.543 -153.069,7.276 -154.46,6.933C-153.271,6.53 -152.386,5.341 -152.386,3.868C-152.386,1.651 -153.957,0.019 -156.739,0.019L-161.878,0.019ZM-179.599,7.174C-179.599,11.773 -176.132,14.613 -172.261,14.613C-168.37,14.613 -164.905,11.773 -164.905,7.174C-164.905,2.557 -168.37,-0.284 -172.261,-0.284C-176.132,-0.284 -179.599,2.557 -179.599,7.174M-176.719,7.155C-176.719,3.928 -174.459,2.395 -172.261,2.395C-170.044,2.395 -167.786,3.928 -167.786,7.155C-167.786,10.38 -170.044,11.914 -172.261,11.914C-174.459,11.914 -176.719,10.38 -176.719,7.155M-192.825,3.342C-192.825,2.376 -192.1,1.911 -191.433,1.911C-190.587,1.911 -189.98,2.517 -189.98,3.283C-189.98,3.808 -190.223,4.311 -190.889,4.794L-191.594,5.318L-191.98,4.897C-192.341,4.534 -192.825,3.949 -192.825,3.342M-191.736,12.237C-192.785,12.237 -193.451,11.41 -193.451,10.582C-193.451,9.737 -192.987,9.192 -192.301,8.687L-191.998,8.464L-189.559,11.046C-190.243,11.773 -190.868,12.237 -191.736,12.237M-186.475,14.31L-183.008,14.31L-186.234,10.923L-184.238,8.826L-184.238,5.481L-187.846,9.25L-190.001,6.972L-189.457,6.57C-188.43,5.802 -187.443,4.753 -187.443,3.303C-187.443,1.166 -189.134,-0.303 -191.414,-0.303C-193.349,-0.303 -195.364,1.026 -195.364,3.423C-195.364,4.713 -194.477,5.802 -193.793,6.529L-193.571,6.771L-193.671,6.831C-195.163,7.941 -196.11,8.97 -196.11,10.744C-196.11,12.66 -194.579,14.572 -191.775,14.572C-190.243,14.572 -189.014,13.846 -187.946,12.759L-186.475,14.31ZM-201.716,14.31L-201.716,0.019L-204.496,0.019L-204.496,9.472L-210.446,0.019L-213.91,0.019L-213.91,14.31L-211.131,14.31L-211.131,4.17L-204.636,14.31L-201.716,14.31ZM-231.631,7.174C-231.631,11.773 -228.167,14.613 -224.294,14.613C-220.402,14.613 -216.938,11.773 -216.938,7.174C-216.938,2.557 -220.402,-0.284 -224.294,-0.284C-228.167,-0.284 -231.631,2.557 -231.631,7.174M-228.751,7.155C-228.751,3.928 -226.492,2.395 -224.294,2.395C-222.076,2.395 -219.818,3.928 -219.818,7.155C-219.818,10.38 -222.076,11.914 -224.294,11.914C-226.492,11.914 -228.751,10.38 -228.751,7.155M-233.911,3.423C-234.232,1.811 -235.562,-0.284 -239.03,-0.284C-241.731,-0.284 -244.01,1.651 -244.01,4.19C-244.01,6.347 -242.538,7.821 -240.26,8.284L-238.264,8.687C-237.154,8.909 -236.529,9.553 -236.529,10.38C-236.529,11.388 -237.355,12.136 -238.849,12.136C-240.865,12.136 -241.854,10.865 -241.975,9.453L-244.554,10.139C-244.331,12.175 -242.658,14.613 -238.869,14.613C-235.542,14.613 -233.709,12.398 -233.709,10.2C-233.709,8.182 -235.1,6.489 -237.698,5.986L-239.696,5.601C-240.745,5.4 -241.249,4.774 -241.249,3.989C-241.249,3.04 -240.362,2.174 -239.01,2.174C-237.196,2.174 -236.55,3.403 -236.409,4.19L-233.911,3.423ZM-247.398,0.019L-250.218,0.019L-250.218,14.31L-247.398,14.31L-247.398,0.019ZM-259.774,3.104L-257.799,8.506L-261.749,8.506L-259.774,3.104ZM-255.682,14.31L-252.657,14.31L-258.101,0.019L-261.327,0.019L-266.811,14.31L-263.866,14.31L-262.677,11.043L-256.872,11.043L-255.682,14.31ZM-269.25,14.31L-269.25,0.019L-273.038,0.019L-277.231,10.339L-281.527,0.019L-285.194,0.019L-285.194,14.31L-282.535,14.31L-282.535,4.372L-278.422,14.31L-276.104,14.31L-271.989,4.292L-271.989,14.31L-269.25,14.31Z" style="fill:rgb(229,28,21);fill-rule:nonzero;"/>
        </g>
        <g transform="matrix(1,0,0,1,318.057,38.0643)">
            <path d="M0,-38.064L-5.18,-34.119L11.711,-21.255L8.202,-21.255L8.202,-6.481L-11.983,-6.481L-11.983,-26.19L-15.591,-26.19L-22.071,-21.255L-18.48,-21.255L-18.48,0L8.202,0L12.522,-6.481L12.522,-22.817L15.035,-26.615L0,-38.064Z" style="fill:rgb(229,28,21);fill-rule:nonzero;"/>
        </g>
    </g>
</svg>
